<svg id="Layer_x0020_1" xmlns="http://www.w3.org/2000/svg" width="900" height="900" viewBox="0 0 900 900">
  <g id="_252727192">
    <circle id="_252727576" cx="450" cy="450" r="450" fill="#ffffff"></circle>
    <circle id="_252727720" cx="413.195" cy="413.195" r="413.195" transform="translate(36.805 36.805)" fill="#cccccc"></circle>
    <path id="_252727648" d="M424.907,46.841c228.2,0,413.194,185,413.194,413.2C838.1,629.255,736.38,774.713,590.75,838.6,749.656,781.036,863.2,628.776,863.2,450,863.2,221.8,678.2,36.8,450,36.8a411.777,411.777,0,0,0-165.844,34.63A412.448,412.448,0,0,1,424.907,46.841Z" fill="#cccccc" fill-rule="evenodd"></path>
  </g>
  <path id="Path_88" data-name="Path 88" d="M673.656,267.79H226.342A32.418,32.418,0,0,0,194,300.134V599.866a32.459,32.459,0,0,0,32.343,32.343h17.212L390.724,484.3l-.017-.015a8,8,0,0,1,11.314-.032l.444.478,79.695,80.1,56.777-54.4,0-.027a8,8,0,0,1,11.311.242l.435.493L663.986,632.209h9.671A32.434,32.434,0,0,0,706,599.866V300.134a32.418,32.418,0,0,0-32.344-32.344Zm-180.632,124.4a42.184,42.184,0,1,1,12.355,29.823,42.054,42.054,0,0,1-12.355-29.823Zm-44.231,0a8,8,0,0,1,8-8h17.067a8,8,0,0,1,0,16H456.794A8,8,0,0,1,448.793,392.191Zm48.691-37.72a8,8,0,0,1-11.313,0L474.1,342.4a8,8,0,0,1,11.313-11.313l12.069,12.067A8,8,0,0,1,497.484,354.471ZM527.2,330.848V313.782a8,8,0,1,1,16,0v17.066a8,8,0,0,1-16,0Zm57.033,23.623a8,8,0,0,1-11.313-11.313l12.068-12.067A8,8,0,0,1,596.3,342.4Zm37.378,37.72a8,8,0,0,1-8,8H596.545a8,8,0,0,1,0-16h17.067A8,8,0,0,1,621.613,392.191ZM535.2,478.6a8,8,0,0,1-8-8V453.534a8,8,0,0,1,16,0V470.6A8,8,0,0,1,535.2,478.6Zm61.1-25.31a8,8,0,0,1-11.313,0l-12.068-12.067a8,8,0,0,1,11.313-11.313L596.3,441.978A8,8,0,0,1,596.3,453.291Zm-122.2,0a8,8,0,0,1,0-11.313l12.069-12.067a8,8,0,0,1,11.313,11.313l-12.069,12.067A8,8,0,0,1,474.1,453.291Z" fill="#ffffff" fill-rule="evenodd"></path>
  <path id="Path_89" data-name="Path 89" d="M396.38,501.236,266.061,632.21H526.689l-49.828-50.083a8.035,8.035,0,0,1-.606-.567l-.373-.417-79.5-79.906Z" fill="#ffffff" fill-rule="evenodd"></path>
  <path id="Path_90" data-name="Path 90" d="M493.416,576.144,549.2,632.21h92.919L544.129,527.552Z" fill="#ffffff" fill-rule="evenodd"></path>
</svg>